<?xml version="1.0" encoding="UTF-8" standalone="no"?>
<svg
   xmlns:dc="http://purl.org/dc/elements/1.1/"
   xmlns:cc="http://creativecommons.org/ns#"
   xmlns:rdf="http://www.w3.org/1999/02/22-rdf-syntax-ns#"
   xmlns:svg="http://www.w3.org/2000/svg"
   xmlns="http://www.w3.org/2000/svg"
   xmlns:sodipodi="http://sodipodi.sourceforge.net/DTD/sodipodi-0.dtd"
   xmlns:inkscape="http://www.inkscape.org/namespaces/inkscape"
   width="188.81599"
   height="58.514282"
   version="1.1"
   x="0px"
   y="0px"
   viewBox="0 0 94.407997 29.257141"
   xml:space="preserve"
   id="svg4"
   sodipodi:docname="double-arrow.svg"
   style="fill:#000000"
   inkscape:version="0.92.1 r"><metadata
     id="metadata10"><rdf:RDF><cc:Work
         rdf:about=""><dc:format>image/svg+xml</dc:format><dc:type
           rdf:resource="http://purl.org/dc/dcmitype/StillImage" /></cc:Work></rdf:RDF></metadata><defs
     id="defs8" /><sodipodi:namedview
     pagecolor="#ffffff"
     bordercolor="#666666"
     borderopacity="1"
     objecttolerance="10"
     gridtolerance="10"
     guidetolerance="10"
     inkscape:pageopacity="0"
     inkscape:pageshadow="2"
     inkscape:window-width="1362"
     inkscape:window-height="744"
     id="namedview6"
     showgrid="false"
     inkscape:zoom="1.18"
     inkscape:cx="-61.947932"
     inkscape:cy="29.256142"
     inkscape:window-x="0"
     inkscape:window-y="20"
     inkscape:window-maximized="0"
     inkscape:current-layer="svg4" /><path
     d="M 94.057,13.851071 85.942,6.6840709 78.67,0.26207095 c -0.67,-0.592 -1.724,-0.116 -1.724,0.77799995 v 7.262 H 17.462 v -7.262 c 0,-0.89399995 -1.054,-1.36899995 -1.724,-0.77799995 L 8.466,6.6840709 0.351,13.851071 c -0.468,0.413 -0.468,1.142 0,1.555 l 8.115,7.167 7.272,6.422 c 0.67,0.592 1.724,0.116 1.724,-0.778 v -7.262 h 59.484 v 7.262 c 0,0.894 1.054,1.369 1.724,0.778 l 7.272,-6.422 8.115,-7.167 c 0.468,-0.412 0.468,-1.142 0,-1.555 z"
     id="path2"
     inkscape:connector-curvature="0" /></svg>