<svg width='200' height='200' fill="#000000" xmlns="http://www.w3.org/2000/svg" data-name="Layer 1" viewBox="0 0 100 100" x="0px" y="0px"><title>78 all</title><path d="M68.09,12.57h-.18A28.67,28.67,0,0,0,50,19.09C44.37,14.17,39,11.67,33.94,11.67a25.76,25.76,0,0,0-18.57,7.84A27.21,27.21,0,0,0,9,46.5H27.9L32.85,36A3.5,3.5,0,0,1,36,34h0a3.5,3.5,0,0,1,3.16,2l8.75,18.27L54.7,39.54a3.5,3.5,0,0,1,5.61-1.06l8.31,8a3.5,3.5,0,0,1-4.85,5L59,46.94,51.16,64A3.5,3.5,0,0,1,48,66h0a3.5,3.5,0,0,1-3.16-2L36,45.66l-2.75,5.83a3.5,3.5,0,0,1-3.17,2H12.29a26.59,26.59,0,0,0,3.08,3.81l30.3,29.27a6.21,6.21,0,0,0,8.66,0l30.23-29.2.07-.07a27.25,27.25,0,0,0,0-37.79A23.14,23.14,0,0,0,68.09,12.57Z"/></svg>