<?xml version="1.0" encoding="UTF-8" standalone="no"?>
<svg
   xmlns:dc="http://purl.org/dc/elements/1.1/"
   xmlns:cc="http://creativecommons.org/ns#"
   xmlns:rdf="http://www.w3.org/1999/02/22-rdf-syntax-ns#"
   xmlns:svg="http://www.w3.org/2000/svg"
   xmlns="http://www.w3.org/2000/svg"
   xmlns:sodipodi="http://sodipodi.sourceforge.net/DTD/sodipodi-0.dtd"
   xmlns:inkscape="http://www.inkscape.org/namespaces/inkscape"
   version="1.1"
   x="0px"
   y="0px"
   viewBox="0 0 92 92"
   id="svg869"
   sodipodi:docname="key-missing.svg"
   inkscape:version="0.92.2 5c3e80d, 2017-08-06"
   width="92"
   height="92">
  <metadata
     id="metadata875">
    <rdf:RDF>
      <cc:Work
         rdf:about="">
        <dc:format>image/svg+xml</dc:format>
        <dc:type
           rdf:resource="http://purl.org/dc/dcmitype/StillImage" />
        <dc:title></dc:title>
      </cc:Work>
    </rdf:RDF>
  </metadata>
  <defs
     id="defs873" />
  <sodipodi:namedview
     pagecolor="#ffffff"
     bordercolor="#666666"
     borderopacity="1"
     objecttolerance="10"
     gridtolerance="10"
     guidetolerance="10"
     inkscape:pageopacity="0"
     inkscape:pageshadow="2"
     inkscape:window-width="1362"
     inkscape:window-height="744"
     id="namedview871"
     showgrid="false"
     inkscape:zoom="4.64"
     inkscape:cx="65.942296"
     inkscape:cy="56.550478"
     inkscape:window-x="0"
     inkscape:window-y="20"
     inkscape:window-maximized="1"
     inkscape:current-layer="svg869"
     inkscape:snap-others="false"
     inkscape:object-nodes="false"
     inkscape:snap-nodes="true" />
  <path
     inkscape:connector-curvature="0"
     id="path2198"
     overflow="visible"
     display="inline"
     visibility="visible"
     marker="none"
     style="color:#000000;text-indent:0;text-transform:none;direction:ltr;baseline-shift:baseline;display:inline;overflow:visible;visibility:visible;fill:#000000;fill-opacity:1;stroke:none;stroke-width:0.98094535;enable-background:accumulate"
     d="m 21.644586,23.138111 c 7.966158,-0.01225 14.876759,4.335584 18.623953,10.761677 l 41.230328,-0.06376 c 0.234658,8.16e-4 0.467925,0.08931 0.64414,0.244203 l 9.823068,8.813314 c 0.416261,0.366497 0.41761,1.103897 0.0023,1.471402 L 79.23277,55.175087 c -0.374545,0.325686 -1.00413,0.297804 -1.348932,-0.05923 l -5.188612,-5.17259 -5.17259,5.188611 c -0.363295,0.378315 -1.04486,0.378536 -1.410154,0.0022 l -5.188612,-5.172591 -5.17259,5.188612 c -0.178867,0.193315 -0.441373,0.305188 -0.704603,0.307606 l -14.744819,0.0228 C 36.571604,61.906133 29.668578,66.287353 21.711353,66.299671 9.8042463,66.318034 0.11558709,56.659292 0.09718933,44.752247 -0.10567864,31.051994 12.641529,22.53234 21.644586,23.138111 Z m 0.003,1.96187 c -10.846813,0.01684 -19.6053392,8.802495 -19.5885671,19.64924 0.016758,10.846758 8.8025101,19.60538 19.6492611,19.588588 7.456297,-0.01156 13.930058,-4.206303 17.242546,-10.326641 0.172252,-0.299222 0.512178,-0.494312 0.857542,-0.491725 l 14.806136,-0.02289 5.601146,-5.618495 c 0.363296,-0.378315 1.04486,-0.378536 1.410085,-0.0021 l 5.188612,5.17259 5.17259,-5.188611 c 0.363295,-0.378315 1.04486,-0.378537 1.410085,-0.0022 l 5.250023,5.233812 11.204878,-9.52018 -8.687299,-7.772885 -41.383482,0.064 C 39.429776,35.860046 39.087217,35.652763 38.921999,35.342617 34.89143,28.227768 27.962236,25.222839 21.647619,25.099981 Z m -7.826305,13.745422 c 3.238909,-0.0051 5.889764,2.637599 5.894709,5.876508 0.0051,3.238985 -2.63757,5.889805 -5.876563,5.894765 -3.238895,0.0051 -5.8897426,-2.63762 -5.8947023,-5.876515 -0.00504,-3.238957 2.6375983,-5.889777 5.8765563,-5.894758 z m 0.003,1.961884 c -2.178658,0.0033 -3.9210964,1.751162 -3.9177067,3.929841 0.00333,2.178595 1.7512117,3.921075 3.9298127,3.917665 2.178665,-0.0033 3.921111,-1.751177 3.917714,-3.929848 -0.0033,-2.178602 -1.751211,-3.921076 -3.92982,-3.917658 z" />
  <g
     id="g2160"
     transform="matrix(0.50486439,0,0,0.46119253,12.883824,9.7127217)">
    <path
       inkscape:connector-curvature="0"
       id="path5100-3"
       d="M -14.329266,172.46319 140.47132,-13.005843"
       style="fill:none;fill-opacity:1;fill-rule:evenodd;stroke:#e0872e;stroke-width:20.19438934;stroke-linecap:butt;stroke-linejoin:miter;stroke-miterlimit:4;stroke-dasharray:none;stroke-opacity:1" />
    <path
       inkscape:connector-curvature="0"
       id="path5100-0-6"
       d="M -25.311462,163.29729 129.48912,-22.171736"
       style="fill:none;fill-opacity:1;fill-rule:evenodd;stroke:#ffffff;stroke-width:9.15738583;stroke-linecap:butt;stroke-linejoin:miter;stroke-miterlimit:4;stroke-dasharray:none;stroke-opacity:1" />
  </g>
</svg>
