<?xml version="1.0" encoding="UTF-8" standalone="no"?>
<svg
   xmlns:dc="http://purl.org/dc/elements/1.1/"
   xmlns:cc="http://creativecommons.org/ns#"
   xmlns:rdf="http://www.w3.org/1999/02/22-rdf-syntax-ns#"
   xmlns:svg="http://www.w3.org/2000/svg"
   xmlns="http://www.w3.org/2000/svg"
   xmlns:sodipodi="http://sodipodi.sourceforge.net/DTD/sodipodi-0.dtd"
   xmlns:inkscape="http://www.inkscape.org/namespaces/inkscape"
   width="184"
   height="84.000038"
   version="1.1"
   x="0px"
   y="0px"
   viewBox="0 0 92 42.000019"
   id="svg964"
   sodipodi:docname="key.svg"
   style="fill:#000000"
   inkscape:version="0.92.2 5c3e80d, 2017-08-06">
  <metadata
     id="metadata970">
    <rdf:RDF>
      <cc:Work
         rdf:about="">
        <dc:format>image/svg+xml</dc:format>
        <dc:type
           rdf:resource="http://purl.org/dc/dcmitype/StillImage" />
        <dc:title></dc:title>
      </cc:Work>
    </rdf:RDF>
  </metadata>
  <defs
     id="defs968" />
  <sodipodi:namedview
     pagecolor="#ffffff"
     bordercolor="#666666"
     borderopacity="1"
     objecttolerance="10"
     gridtolerance="10"
     guidetolerance="10"
     inkscape:pageopacity="0"
     inkscape:pageshadow="2"
     inkscape:window-width="1362"
     inkscape:window-height="744"
     id="namedview966"
     showgrid="false"
     inkscape:zoom="2.88"
     inkscape:cx="92"
     inkscape:cy="42.00004"
     inkscape:window-x="0"
     inkscape:window-y="20"
     inkscape:window-maximized="0"
     inkscape:current-layer="svg964" />
  <g
     transform="translate(-4.0000002,-981.36218)"
     id="g962">
    <path
       style="color:#000000;display:inline;overflow:visible;visibility:visible;fill:#000000;stroke:none;enable-background:accumulate"
       d="m 25,981.36218 c 7.97356,0 14.91261,4.4538 18.46875,11.00001 H 86 l 10,9.00001 -13,11 -6,-6 -6,6 -6,-6 -6,6 H 43.46875 c -3.55614,6.5462 -10.49519,11 -18.46875,11 -11.59793,0 -20.9999998,-9.4021 -20.9999998,-21 0,-11.59791 9.4020698,-21.00002 20.9999998,-21.00002 z m -8,16.00001 c -2.76141,0 -5,2.2386 -5,5.00001 0,2.7614 2.23859,5 5,5 2.76141,0 5,-2.2386 5,-5 0,-2.76141 -2.23859,-5.00001 -5,-5.00001 z"
       marker="none"
       visibility="visible"
       display="inline"
       overflow="visible"
       id="path960"
       inkscape:connector-curvature="0" />
  </g>
</svg>
