<?xml version="1.0" encoding="UTF-8" standalone="no"?>
<svg
   xmlns:dc="http://purl.org/dc/elements/1.1/"
   xmlns:cc="http://creativecommons.org/ns#"
   xmlns:rdf="http://www.w3.org/1999/02/22-rdf-syntax-ns#"
   xmlns:svg="http://www.w3.org/2000/svg"
   xmlns="http://www.w3.org/2000/svg"
   xmlns:sodipodi="http://sodipodi.sourceforge.net/DTD/sodipodi-0.dtd"
   xmlns:inkscape="http://www.inkscape.org/namespaces/inkscape"
   version="1.1"
   x="0px"
   y="0px"
   viewBox="0.94 0.569 97.511495 99.999001"
   enable-background="new 0.94 0.569 97.509 100"
   xml:space="preserve"
   id="svg14"
   sodipodi:docname="keyring.svg"
   inkscape:version="0.92.2 5c3e80d, 2017-08-06"
   width="97.511497"
   height="99.999001"><metadata
     id="metadata20"><rdf:RDF><cc:Work
         rdf:about=""><dc:format>image/svg+xml</dc:format><dc:type
           rdf:resource="http://purl.org/dc/dcmitype/StillImage" /><dc:title></dc:title></cc:Work></rdf:RDF></metadata><defs
     id="defs18" /><sodipodi:namedview
     pagecolor="#ffffff"
     bordercolor="#666666"
     borderopacity="1"
     objecttolerance="10"
     gridtolerance="10"
     guidetolerance="10"
     inkscape:pageopacity="0"
     inkscape:pageshadow="2"
     inkscape:window-width="1362"
     inkscape:window-height="744"
     id="namedview16"
     showgrid="false"
     inkscape:zoom="1.888"
     inkscape:cx="-48.969456"
     inkscape:cy="37.5"
     inkscape:window-x="0"
     inkscape:window-y="20"
     inkscape:window-maximized="1"
     inkscape:current-layer="svg14" /><g
     id="g8"
     transform="translate(-0.0015,-0.001)"><path
       d="M 44.195,61.913 H 44.02 C 33.96,61.795 25.344,54.52 23.533,44.616 c -0.707,-3.864 -0.276,-7.699 1.035,-11.168 -0.47,0.17 -0.942,0.338 -1.392,0.553 -0.105,0.05 -0.205,0.109 -0.308,0.161 -0.542,0.274 -1.066,0.581 -1.573,0.916 -0.111,0.074 -0.227,0.141 -0.337,0.218 -0.554,0.387 -1.084,0.814 -1.587,1.274 -0.107,0.101 -0.209,0.205 -0.314,0.306 -0.45,0.437 -0.877,0.899 -1.275,1.391 -0.059,0.072 -0.123,0.138 -0.18,0.211 -0.427,0.549 -0.811,1.14 -1.166,1.753 -0.083,0.143 -0.16,0.288 -0.237,0.432 -0.344,0.642 -0.661,1.302 -0.918,2.002 -2.95,8.057 1.187,16.98 9.244,19.935 1.197,0.438 2.413,0.702 3.627,0.836 l 4.537,9.781 5.856,2.147 -2.146,5.854 0.041,0.089 5.855,2.145 -2.145,5.856 0.041,0.087 5.856,2.146 -1.944,5.312 10.137,3.716 L 58.154,89.88 52.817,78.351 45.173,61.882 c -0.327,0.015 -0.653,0.031 -0.978,0.031 z"
       id="path2"
       inkscape:connector-curvature="0" /><path
       d="M 96.12,65.519 84.241,57.308 61.891,41.871 C 61.975,40.487 61.912,39.076 61.653,37.65 61.549,37.081 61.415,36.524 61.259,35.98 61.208,35.802 61.146,35.63 61.087,35.456 60.974,35.092 60.855,34.733 60.719,34.383 60.64,34.181 60.549,33.989 60.466,33.794 60.328,33.48 60.191,33.167 60.035,32.865 59.933,32.665 59.827,32.471 59.72,32.277 59.562,31.99 59.397,31.706 59.222,31.429 59.101,31.239 58.981,31.054 58.852,30.868 58.67,30.599 58.479,30.337 58.281,30.081 58.147,29.906 58.012,29.731 57.876,29.563 57.661,29.308 57.438,29.061 57.21,28.817 57.069,28.665 56.933,28.511 56.786,28.365 56.528,28.106 56.26,27.862 55.984,27.621 55.855,27.507 55.735,27.385 55.6,27.276 55.19,26.931 54.766,26.605 54.326,26.301 54.303,26.286 54.279,26.273 54.256,26.258 53.836,25.971 53.404,25.704 52.962,25.453 52.808,25.366 52.647,25.288 52.488,25.205 52.17,25.038 51.853,24.874 51.523,24.726 51.335,24.642 51.139,24.567 50.946,24.488 50.64,24.363 50.334,24.242 50.02,24.133 c -0.208,-0.072 -0.418,-0.136 -0.63,-0.2 -0.311,-0.095 -0.623,-0.18 -0.938,-0.257 -0.021,-0.005 -0.043,-0.008 -0.064,-0.015 -0.239,6.367 -2.79,12.386 -7.378,16.975 -0.975,0.977 -2.272,1.513 -3.65,1.513 -1.379,0 -2.675,-0.536 -3.651,-1.513 -2.012,-2.012 -2.012,-5.288 0,-7.301 2.466,-2.465 3.938,-5.618 4.309,-8.992 -7.812,2.961 -12.654,11.141 -11.097,19.651 1.544,8.446 8.866,14.378 17.142,14.476 0.381,0.005 0.766,-0.014 1.152,-0.032 0.181,-0.011 0.36,-0.011 0.541,-0.023 0.567,-0.049 1.136,-0.121 1.707,-0.226 1.425,-0.261 2.77,-0.701 4.036,-1.271 l 10.08,6.965 6.974,-1.274 1.275,6.972 0.087,0.063 6.974,-1.275 1.27,6.972 0.091,0.062 6.972,-1.274 1.159,6.322 12.072,-2.209 z"
       id="path4"
       inkscape:connector-curvature="0" /><path
       d="m 36.14,35.769 c -0.672,0.672 -0.672,1.761 0,2.433 0.336,0.337 0.776,0.504 1.217,0.504 0.44,0 0.88,-0.167 1.217,-0.504 5.07,-5.071 7.125,-12.01 6.216,-18.618 -0.633,-4.6 -2.688,-9.038 -6.215,-12.565 -4.299,-4.3 -9.946,-6.449 -15.592,-6.449 -1.276,0 -2.548,0.125 -3.808,0.345 -0.134,0.023 -0.272,0.032 -0.406,0.057 -0.318,0.062 -0.631,0.156 -0.946,0.232 -0.375,0.089 -0.752,0.164 -1.122,0.273 -0.057,0.017 -0.114,0.042 -0.169,0.059 -2.414,0.735 -4.717,1.908 -6.809,3.487 -0.81,0.61 -1.597,1.26 -2.333,1.997 -8.598,8.597 -8.598,22.586 0,31.184 1.381,1.381 2.929,2.55 4.591,3.506 0.026,-0.074 0.042,-0.149 0.069,-0.224 0.287,-0.784 0.643,-1.563 1.143,-2.494 0.077,-0.145 0.155,-0.287 0.233,-0.424 C 12.125,37.792 10.912,36.861 9.822,35.77 2.568,28.516 2.568,16.708 9.822,9.453 10.919,8.356 12.13,7.446 13.403,6.679 14.057,6.287 14.734,5.953 15.422,5.648 15.59,5.573 15.756,5.501 15.924,5.433 16.61,5.151 17.305,4.9 18.013,4.704 18.075,4.687 18.138,4.676 18.199,4.662 18.863,4.485 19.535,4.354 20.211,4.252 20.386,4.226 20.56,4.2 20.735,4.178 21.458,4.09 22.184,4.035 22.911,4.032 c 0.026,0 0.051,-0.005 0.077,-0.005 0.328,0 0.653,0.022 0.98,0.041 0.167,0.008 0.333,0.007 0.5,0.02 0.526,0.042 1.053,0.104 1.576,0.19 2.897,0.48 5.695,1.647 8.142,3.498 0.678,0.513 1.338,1.058 1.956,1.675 2.912,2.912 4.634,6.56 5.208,10.352 0.856,5.651 -0.867,11.621 -5.21,15.966 z"
       id="path6"
       inkscape:connector-curvature="0" /></g></svg>