<?xml version="1.0" encoding="UTF-8" standalone="no"?>
<svg
   xmlns:dc="http://purl.org/dc/elements/1.1/"
   xmlns:cc="http://creativecommons.org/ns#"
   xmlns:rdf="http://www.w3.org/1999/02/22-rdf-syntax-ns#"
   xmlns:svg="http://www.w3.org/2000/svg"
   xmlns="http://www.w3.org/2000/svg"
   xmlns:sodipodi="http://sodipodi.sourceforge.net/DTD/sodipodi-0.dtd"
   xmlns:inkscape="http://www.inkscape.org/namespaces/inkscape"
   version="1.1"
   x="0px"
   y="0px"
   viewBox="0 0 90 59.256001"
   enable-background="new 0 0 100 100"
   xml:space="preserve"
   id="svg5476"
   sodipodi:docname="people.svg"
   width="90"
   height="59.256001"
   style="fill:#000000"
   inkscape:version="0.92.2 5c3e80d, 2017-08-06"><metadata
     id="metadata5482"><rdf:RDF><cc:Work
         rdf:about=""><dc:format>image/svg+xml</dc:format><dc:type
           rdf:resource="http://purl.org/dc/dcmitype/StillImage" /><dc:title></dc:title></cc:Work></rdf:RDF></metadata><defs
     id="defs5480" /><sodipodi:namedview
     pagecolor="#ffffff"
     bordercolor="#666666"
     borderopacity="1"
     objecttolerance="10"
     gridtolerance="10"
     guidetolerance="10"
     inkscape:pageopacity="0"
     inkscape:pageshadow="2"
     inkscape:window-width="1362"
     inkscape:window-height="744"
     id="namedview5478"
     showgrid="false"
     inkscape:zoom="5.58"
     inkscape:cx="45"
     inkscape:cy="29.628"
     inkscape:window-x="0"
     inkscape:window-y="20"
     inkscape:window-maximized="1"
     inkscape:current-layer="svg5476" /><g
     display="none"
     id="g5458"
     style="display:none"
     transform="translate(-5,-20.372)"><rect
       x="-660.87701"
       y="-397.172"
       display="inline"
       width="1370.931"
       height="1263.231"
       id="rect5456"
       style="display:inline;fill:#000000" /></g><g
     display="none"
     id="g5464"
     style="display:none;opacity:0.31000001"
     transform="translate(-5,-20.372)"><g
       display="inline"
       id="g5462"
       style="display:inline"><path
         d="m 50,8.339 c -24.813,0 -45,20.187 -45,45 0,9.966 3.192,19.379 9.224,27.265 v 7.265 c 0,0.844 0.685,1.528 1.528,1.528 0.844,0 1.528,-0.684 1.528,-1.528 V 86.35 66.29 c 0,-3.71 3.013,-6.729 6.717,-6.729 h 5.193 c 3.077,0 5.708,2.083 6.488,4.974 v 3.516 13.187 8.851 c 0,0.844 0.685,1.528 1.528,1.528 0.843,0 1.527,-0.683 1.528,-1.526 0,-10e-4 0,-0.002 0,-0.002 V 59.476 c 0,-4.53 3.685,-8.215 8.214,-8.215 h 6.117 c 4.523,0 8.203,3.685 8.203,8.215 v 30.654 0.003 c 0,0.844 0.685,1.528 1.528,1.528 0.844,0 1.528,-0.684 1.528,-1.528 V 82.885 68.317 64.801 c 0.781,-2.894 3.412,-4.975 6.488,-4.975 h 5.193 c 3.704,0 6.717,3.019 6.717,6.729 v 20.06 1.52 c 0,0.844 0.685,1.528 1.528,1.528 0.843,0 1.528,-0.684 1.528,-1.528 V 80.607 C 91.81,72.725 95,63.311 95,53.339 c 0,-24.813 -20.187,-45 -45,-45 z m -23.404,47.04 c -3.998,0 -7.25,-3.252 -7.25,-7.25 0,-3.998 3.252,-7.25 7.25,-7.25 3.998,0 7.25,3.252 7.25,7.25 0,3.998 -3.252,7.25 -7.25,7.25 z m 14.311,-17.29 c 0,-5.018 4.082,-9.1 9.1,-9.1 5.018,0 9.1,4.082 9.1,9.1 0,5.018 -4.082,9.1 -9.1,9.1 -5.018,0 -9.1,-4.082 -9.1,-9.1 z m 32.501,17.556 c -3.998,0 -7.25,-3.252 -7.25,-7.25 0,-3.998 3.252,-7.25 7.25,-7.25 3.998,0 7.25,3.252 7.25,7.25 0,3.998 -3.252,7.25 -7.25,7.25 z m 12.373,19.579 v -8.667 c 0,-4.43 -2.958,-8.177 -6.999,-9.378 2.955,-1.812 4.933,-5.062 4.933,-8.782 0,-5.692 -4.614,-10.306 -10.306,-10.306 -5.692,0 -10.306,4.614 -10.306,10.306 0,3.719 1.977,6.969 4.931,8.781 -1.39,0.412 -2.656,1.123 -3.718,2.067 -0.104,-5.073 -3.568,-9.325 -8.254,-10.622 3.644,-2.099 6.103,-6.025 6.103,-10.532 0,-6.714 -5.443,-12.157 -12.157,-12.157 -6.714,0 -12.157,5.443 -12.157,12.157 0,4.507 2.459,8.433 6.103,10.532 -4.612,1.275 -8.037,5.407 -8.25,10.367 -1.064,-0.95 -2.335,-1.664 -3.731,-2.078 2.954,-1.812 4.93,-5.062 4.93,-8.781 0,-5.692 -4.614,-10.306 -10.306,-10.306 -5.692,0 -10.306,4.614 -10.306,10.306 0,3.72 1.978,6.97 4.933,8.782 -4.041,1.201 -6.999,4.948 -6.999,9.378 v 8.931 C 10.181,68.66 8.058,61.184 8.058,53.34 c 0,-23.127 18.816,-41.943 41.943,-41.943 23.127,0 41.943,18.816 41.943,41.943 -0.001,7.846 -2.122,15.322 -6.163,21.884 z"
         id="path5460"
         inkscape:connector-curvature="0" /></g></g><g
     id="g5474"
     transform="translate(-5,-20.372)"><path
       d="m 16.354,34.24 c 0,7.647 6.221,13.868 13.868,13.868 7.647,0 13.868,-6.221 13.868,-13.868 0,-7.647 -6.221,-13.868 -13.868,-13.868 -7.646,0 -13.868,6.221 -13.868,13.868 z"
       id="path5466"
       inkscape:connector-curvature="0" /><path
       d="M 49.839,60.006 C 46.687,57.057 42.467,55.236 37.82,55.236 H 22.624 C 12.906,55.236 5,63.142 5,72.86 h 34.982 c 1.643,-5.376 5.197,-9.912 9.857,-12.854 z"
       id="path5468"
       inkscape:connector-curvature="0" /><path
       d="m 55.909,41.008 c 0,7.647 6.221,13.868 13.868,13.868 7.647,0 13.868,-6.221 13.868,-13.868 0,-7.647 -6.221,-13.868 -13.868,-13.868 -7.647,0 -13.868,6.221 -13.868,13.868 z"
       id="path5470"
       inkscape:connector-curvature="0" /><path
       d="M 77.376,62.004 H 62.179 c -9.718,0 -17.624,7.906 -17.624,17.624 H 95 C 95,69.91 87.094,62.004 77.376,62.004 Z"
       id="path5472"
       inkscape:connector-curvature="0" /></g></svg>