<svg fill="#cccccc" xmlns="http://www.w3.org/2000/svg" xmlns:xlink="http://www.w3.org/1999/xlink" version="1.1" x="0px" y="0px" viewBox="0 0 600 600" enable-background="new 0 0 600 600" xml:space="preserve"><g><rect x="199.247" y="372.525" width="201.748" height="45.378"/><path d="M326.849,88.491c0-14.763-11.966-26.728-26.727-26.728c-14.758,0-26.722,11.964-26.722,26.728   c0,12.155,8.165,22.297,19.272,25.539v14.214h14.899V114.03C318.681,110.789,326.849,100.646,326.849,88.491z"/><path d="M575.119,538.434h-550V465.28c0-20.681,16.767-37.442,37.45-37.442h475.103c20.69,0,37.447,16.762,37.447,37.442V538.434z"/><path d="M147.718,138.179v224.412h304.8V138.179H147.718z M227.573,241.862c-13.784,0-24.966-11.175-24.966-24.958   c0-13.793,11.182-24.966,24.966-24.966c13.788,0,24.958,11.173,24.958,24.966C252.532,230.687,241.361,241.862,227.573,241.862z    M372.668,241.862c-13.791,0-24.954-11.175-24.954-24.958c0-13.793,11.163-24.966,24.954-24.966   c13.785,0,24.973,11.173,24.973,24.966C397.641,230.687,386.453,241.862,372.668,241.862z"/></g></svg>
